# xmcd CD Database Entry
#
# Track frame offsets:
# 150
# 21222
# 40830
# 61142
# 82895
# 100600
# 121925
# 139665
# 164227
# 185535
#
# Disc length: 3200 seconds
#
# Revision: 5
# Processed by: cddbd v1.4b41PL1 Copyright (c) Steve Scherf et al.
# Submitted via: tcd 2.0b
#
DISCID=7c0c7e0a
DTITLE=strong deformity - racket
DYEAR=1900
DGENRE=
TTITLE0=DEVIL'S CAB
TTITLE1=STREAM
TTITLE2=IGNITION
TTITLE3=FORGIVENESS
TTITLE4=TWINS
TTITLE5=SUPERDOPE
TTITLE6=INSOMNIA
TTITLE7=STANDBY
TTITLE8=TRIP WITH NO MOVING
TTITLE9=TRUST
EXTD=
EXTT0=
EXTT1=
EXTT2=
EXTT3=
EXTT4=
EXTT5=
EXTT6=
EXTT7=
EXTT8=
EXTT9=
PLAYORDER=
